<?xml version="1.0" encoding="UTF-8" standalone="no"?>
<svg
   version="1.1"
   width="671"
   height="695"
   id="svg13"
   style="background-color: black"
   sodipodi:docname="mobx.svg"
   inkscape:version="1.4 (e7c3feb100, 2024-10-09)"
   viewBox="0 0 671 695"
   xmlns:inkscape="http://www.inkscape.org/namespaces/inkscape"
   xmlns:sodipodi="http://sodipodi.sourceforge.net/DTD/sodipodi-0.dtd"
   xmlns="http://www.w3.org/2000/svg"
   xmlns:svg="http://www.w3.org/2000/svg">
  <defs
     id="defs13" />
  <sodipodi:namedview
     id="namedview13"
     pagecolor="#000000"
     bordercolor="#000000"
     borderopacity="0.24705882"
     inkscape:showpageshadow="2"
     inkscape:pageopacity="0.0"
     inkscape:pagecheckerboard="0"
     inkscape:deskcolor="#d1d1d1"
     inkscape:zoom="0.3535534"
     inkscape:cx="448.30569"
     inkscape:cy="601.04075"
     inkscape:window-width="1920"
     inkscape:window-height="1011"
     inkscape:window-x="0"
     inkscape:window-y="32"
     inkscape:window-maximized="1"
     inkscape:current-layer="layer1"
     showguides="false" />
  <g
     inkscape:groupmode="layer"
     id="layer1"
     inkscape:label="mobx">
    <path
       style="display:inline;opacity:1;fill:#ffffff;fill-opacity:1;fill-rule:nonzero"
       d="m 416.25,611 23,-33 -21,-30 h 21 l 12,17 11,-17 h 20 l -20,30 23,33 h -21 l -13,-19 -14,19 z"
       id="path30"
       sodipodi:nodetypes="ccccccccccccc"
       inkscape:label="X" />
    <path
       id="path6"
       style="display:inline;opacity:1;fill:#ffffff;fill-opacity:1"
       inkscape:label="B"
       d="m -22,-5 c -9,0 -19,1 -25,2 V 59 C -31,61 -6,62 3,52 7,46 7,45 7,38 7,31 -1,27 -4,26 2,23 5,19 5,12 4,-2 -8,-5 -22,-5 Z m -8,12 h 12 c 0,0 7,0 7,6 0,7 -7,7 -7,7 h -12 z m 0,26 h 12 c 0,0 9,0 9,7 0,8 -9,8 -9,8 h -12 z"
       transform="translate(402.98828,552.8155)" />
    <path
       id="path4"
       style="display:inline;opacity:1;fill:#ffffff;fill-opacity:1"
       inkscape:label="O"
       d="m 313,547 c -20,0 -33,13 -33,33 0,20 14,33 33,33 20,0 34,-13 34,-33 0,-20 -14,-33 -34,-33 z m 0,14 c 11,0 17,7 17,19 0,12 -6,19 -17,19 -11,0 -15,-9 -15,-19 0,-9 4,-19 15,-19 z" />
    <path
       d="m 0,63 h 16 l 1,-36 c 7,15 11,23 13,27 H 44 L 58,23 59,63 H 74 V 0 H 53 L 37,35 21,0 H 0 Z"
       fill="#fcfcfc"
       id="path5"
       sodipodi:nodetypes="cccccccccccccc"
       style="display:inline;opacity:1;fill:#ffffff;fill-opacity:1"
       inkscape:label="M"
       transform="translate(197,548.41316)" />
    <path
       id="path2"
       style="display:inline;opacity:1;fill:#ffffff"
       inkscape:label="Logo"
       d="M 177,0 H -40 c -2,3 16,18 19,30 5,16 2,33 1,49 C -36,63 -47,46 -51,24 h -93 c 0,8 5,15 12,22 7,8 23,18 25,31 4,57 3,114 1,171 -3,16 -21,26 -36,32 0,0 83,63 102,77 3,2 7,5 11,5 -1,-14 -4,-30 -10,-43 -5,-6 -8,-11 -8,-19 0,-2 0,-51 -1,-206 9,6 24,10 27,18 3,8 3,13 3,20 -1,60 0,121 -1,183 v 39 c 0,6 0,13 1,19 40,31 113,85 118,85 5,0 93,-65 119,-84 v -70 -55 l -92,-67 c 0,0 80.75736,-59.37241 121,-89 1,70 2,211 2,211 l -17,24 1,35 3,-2 106,-77 c 0,0 1,-2 0,-2 -16,-7 -32,-16 -35,-35 V 78 c 1,-11 4,-12 15,-21 11,-9 20,-19 22,-33 h -91 c -4,0 2,21 -34,55 1,-32 -2,-54 22,-79 H 178 Z M 38,24 h 125 v 94 l -63,46 -46,-32 v 36 l 109,77 -1,133 c 0,0 -58,44 -62,44 -4,0 -62,-44 -62,-44 z"
       sodipodi:nodetypes="ccscccscccccccccscccscsccccccccsccscsccsccccccccsccc"
       transform="translate(234.72119,66.870605)" />
  </g>
</svg>
