<?xml version="1.0" encoding="UTF-8" standalone="no"?>
<svg
   version="1.1"
   width="392"
   height="392"
   id="svg5"
   sodipodi:docname="placeholder-image.svg"
   inkscape:version="1.4 (e7c3feb100, 2024-10-09)"
   xmlns:inkscape="http://www.inkscape.org/namespaces/inkscape"
   xmlns:sodipodi="http://sodipodi.sourceforge.net/DTD/sodipodi-0.dtd"
   xmlns="http://www.w3.org/2000/svg"
   xmlns:svg="http://www.w3.org/2000/svg">
  <defs
     id="defs5" />
  <sodipodi:namedview
     id="namedview5"
     pagecolor="#ffffff"
     bordercolor="#000000"
     borderopacity="0.25"
     inkscape:showpageshadow="2"
     inkscape:pageopacity="0.0"
     inkscape:pagecheckerboard="0"
     inkscape:deskcolor="#d1d1d1"
     inkscape:zoom="2.8284271"
     inkscape:cx="169.8824"
     inkscape:cy="198.87378"
     inkscape:window-width="1920"
     inkscape:window-height="1011"
     inkscape:window-x="0"
     inkscape:window-y="32"
     inkscape:window-maximized="1"
     inkscape:current-layer="svg5" />
  <path
     id="path2"
     style="fill:#354357;fill-opacity:1"
     d="M 2.9338379,-0.02783203 2.4414062e-4,-4.8828125e-4 C -2.8460466,0.00748759 -4.2386165,-0.00252934 -6.548584,1.6831055 -8.1211081,3.8707804 -8.1210318,3.8709025 -8.1911621,9.2670898 l 0.017578,2.3671872 c -0.00589,1.658198 -0.00974,3.316403 -0.011719,4.97461 0.019174,2.611892 0.035611,5.222045 0.019531,7.833984 -0.01255,1.705371 -0.017663,3.411772 -0.015625,5.117188 l 0.00781,2.449218 c -0.029402,3.772999 -0.2564146,7.199171 1.625,10.583985 2.3224497,2.838762 6.18457909,2.30765 9.4824219,2.351562 22.8740942,-0.168672 2.4399166,0.07479 30.2871092,-0.02539 11.937263,0.09278 15.377777,0.04433 15.560547,-10.548829 l -0.02539,-2.361328 c 0.0079,-1.659494 0.01298,-3.319004 0.01563,-4.978515 -0.02561,-2.610157 -0.04677,-5.217883 -0.02539,-7.828125 0.01671,-1.707122 0.02421,-3.413892 0.02148,-5.121094 l -0.01172,-2.447266 c 0.07336,-7.0786048 -9.2e-4,-10.5025709 -6.85156,-11.62695278 l -2.583984,-0.007812501 -2.94336,-0.027343749 -3.15625,0.01757812 c -2.206376,-0.0058918 -4.412758,-0.009736 -6.61914,-0.01171875 -3.478798,0.01920764 -6.956713,0.03556611 -10.435547,0.01953125 -2.272102,-0.012522 -4.544271,-0.0176674 -6.8164065,-0.015625 l -3.2539062,0.0078125 z M -0.70874023,4.2260742 c 0.65257329,-0.00433 1.40480335,0.034035 2.25390623,0.033203 l 2.78125,-0.00977 3.0234375,0.00586 3.0820315,-0.00195 c 5.467458,0.0026 10.934888,0.00831 16.402344,-0.00195 2.088541,6.608e-4 4.177083,0.00194 6.265625,0.00391 l 3.023437,-0.00586 2.78125,0.00977 2.460938,0.00195 c 3.668662,-0.091598 2.962012,3.299034 2.957035,6.0371098 l -0.0098,2.998047 -0.02539,3.154297 -0.01367,3.166015 c -0.01183,2.590551 -0.02831,5.18099 -0.04883,7.771485 l -2.738282,-2.46875 c -3.305915,-2.74959 -10.01047,-5.908122 -14.261718,0.46875 -3.224072,-1.387753 -4.994746,-2.964676 -7.25,-5.625 -7.499285,-8.521397 -14.6788218,-1.366602 -20.52734423,5.21875 l -2.22265627,2.40625 h -1 c -0.028875,-3.645817 -0.046756,-7.291605 -0.0625,-10.9375 l -0.025391,-3.154297 -0.00977,-2.998047 -0.015625,-2.7773442 C -3.734292,4.6249022 -2.6664601,4.2390773 -0.70874023,4.2260742 Z m 24.93359423,5.1621094 -1,5.0000004 5,1 1,-5 z M 11.72876,19.653809 c 4.252643,-0.138702 5.738522,1.289236 11.246094,7.296922 2.049409,2.189246 4.120989,4.323192 6.25,6.4375 0,0 3.919451,-0.99741 -1,-5 3.282359,-4.011772 5.000351,-5.974739 10.875,-1.605469 9.091131,8.119701 4.922491,13.561822 4.125,13.605469 C 28.538829,41.191995 13.793505,40.525732 -0.91577148,40.515237 -7.0437091,40.096517 -3.1266359,31.393707 -2.6774902,30.70459 1.872991,25.716204 8.0466078,19.773662 11.72876,19.653809 Z"
     transform="translate(175.77515,173.61182)"
     sodipodi:nodetypes="cccccccccccccccccccccccccccsccccccccccccccccccccccccscccccsccccsccs" />
</svg>
